<?xml version="1.0" encoding="utf-8"?>
<!-- Generator: Adobe Illustrator 26.0.1, SVG Export Plug-In . SVG Version: 6.00 Build 0)  -->
<svg version="1.1" id="Layer_1" xmlns="http://www.w3.org/2000/svg" xmlns:xlink="http://www.w3.org/1999/xlink" x="0px" y="0px"
	 viewBox="0 0 1200 1200" style="enable-background:new 0 0 1200 1200;" xml:space="preserve">
<style type="text/css">
	.st0{fill:#3B78AF;}
	.st1{fill:#FFFFFF;}
</style>
<rect class="st0" width="1200" height="1200"/>
<g>
	<path class="st1" d="M563.53,920.07c-0.46-0.3-0.91-0.64-1.33-1.02c-4.66-4.13-5.01-11.16-5.02-17.38
		c-0.18-116.81-0.3-233.62-0.36-350.44c-0.03-58.41-0.04-116.81-0.04-175.22c0-49.86-16.51-110.99,52.71-93.68
		c16.26,7.52,28.71,21.2,40.68,34.52c66.56,74.05,133.13,148.1,199.69,222.15c63.8-72.61,127.6-145.22,191.41-217.82
		c19.82-22.55,44.45-47.14,74.34-44.32c8.14,0.77,16.73,4.23,20.55,11.47c2.53,4.79,2.58,10.46,2.58,15.87
		c-0.11,200.41-0.22,400.83-0.33,601.24c0,4.68-0.19,9.85-3.39,13.27c-3.48,3.72-9.19,3.97-14.28,3.97
		c-37.81,0.02-75.61,0.04-113.42,0.05c-5.4,0-11.48-0.28-15.11-4.27c-3.18-3.49-3.39-8.68-3.44-13.4
		c-0.9-97.94-1.8-195.87-2.71-293.81c-46.2,46.85-92.39,93.71-138.59,140.56c-44.5-48.54-90.68-95.53-138.45-140.87
		c-0.42,97.31-0.84,194.62-1.26,291.93c-0.03,6-0.42,12.83-5.05,16.65c-3.64,3.01-8.79,3.16-13.51,3.16
		c-37.25,0.03-74.51,0.06-111.76,0.09C572.65,922.79,567.44,922.65,563.53,920.07z M631.66,334.16
		c-6.77-6.41-13.5-11.45-19.94-14.12c-38.67-16.04-26.41,48.61-26.55,72.78c-0.95,159.56-1.08,319.12-0.39,478.67
		c0.02,5.54,0.23,11.59,3.84,15.78c4.45,5.17,12.21,5.5,19.03,5.43c23.96-0.25,47.93-0.5,71.89-0.74
		c-0.57-118.04-0.22-236.09,1.06-354.13c58.37,55.77,114.18,114.21,167.2,175.08c53.26-60.5,109.26-118.59,167.79-174.01
		c0,113.38,0.01,226.76,0.01,340.14c0,3.65,0.13,7.66,2.58,10.37c2.77,3.08,7.44,3.31,11.58,3.33c21.26,0.08,42.52,0.17,63.77,0.25
		c5.26,0.02,11.31-0.32,14.53-4.48c2.32-2.99,2.42-7.09,2.42-10.87c0-183.95,0.01-367.9,0.01-551.86c0-5.77-0.51-12.54-5.35-15.68
		c-6.87-4.46-15.42,2.14-20.9,8.22c-78.33,86.87-156.66,173.73-235.01,260.58c-52.97-57.88-105.95-115.75-158.92-173.63
		C675.17,388.75,653.16,354.52,631.66,334.16z"/>
	<path class="st1" d="M501.23,463.64c-48.97-23.01-104.22-39.52-156.89-27.15c-44.67,10.48-83.53,41.99-104.81,82.65
		s-25.16,89.67-12.5,133.77c8.99,31.31,26.36,60.6,51.45,81.38c62.59,51.83,157.15,40.24,230.76,5.79
		c10.94,42.45,17.6,86,19.83,129.77c0.3,5.94,0.43,12.29-2.68,17.36c-3.09,5.03-8.74,7.8-14.15,10.15
		c-98.5,42.87-218.49,32.1-307.79-27.6c-89.31-59.71-145.1-166.47-143.13-273.88c4.04-220.6,234.14-373.83,438.98-289.99
		c6.03,2.47,12.41,5.5,15.5,11.24c2.89,5.37,2.21,11.88,1.46,17.93C511.91,377.91,506.57,420.78,501.23,463.64z M489.04,780.97
		c-0.24-1.11-0.48-2.22-0.73-3.33c-80.2,42.55-188.66,22.83-248.13-45.77s-63.37-179.39-8.23-251.52s163.75-97.29,244.64-56.06
		c3.49-24.96,6.98-49.93,10.48-74.89c0.77-5.49,1.44-11.47-1.42-16.22c-2.9-4.81-8.63-6.99-13.98-8.69
		C289.06,266.43,96.7,398.69,89.91,591.28c-3.35,95.1,42.77,190.59,119.33,247.1c76.56,56.5,181.41,72.42,271.3,41.18
		c6.3-2.19,12.97-4.95,16.46-10.63c3.31-5.39,2.99-12.17,2.45-18.46C497.46,827.11,493.99,803.88,489.04,780.97z"/>
</g>
</svg>
